<?xml version="1.0" ?>
<svg id="Doll" viewBox="0 0 512 512" xmlns="http://www.w3.org/2000/svg">
    <title />
    <path fill="rgb(15, 225, 228)"
        d="M340.2373,104.4482a15.9423,15.9423,0,0,1,.7949,21.6684,2,2,0,0,0,3.0117,2.6328,19.928,19.928,0,0,0-28.1084-28.1083,2,2,0,1,0,2.6329,3.0107,15.9424,15.9424,0,0,1,21.6689.7964Z" />
    <path fill="rgb(15, 225, 228)"
        d="M195.6953,104.0712a2,2,0,0,0-.0625-2.8276,19.92,19.92,0,0,0-27.543,28.7851,2,2,0,1,0,2.7657-2.8886,15.9207,15.9207,0,0,1,22.0117-23.0069A1.9992,1.9992,0,0,0,195.6953,104.0712Z" />
    <path fill="rgb(15, 225, 228)"
        d="M283.3335,180.7435a6.3879,6.3879,0,1,0-6.3878-6.3879A6.388,6.388,0,0,0,283.3335,180.7435Z" />
    <path fill="rgb(15, 225, 228)"
        d="M227.5762,180.7435a6.3879,6.3879,0,1,0-6.388-6.3879A6.3879,6.3879,0,0,0,227.5762,180.7435Z" />
    <path fill="rgb(15, 225, 228)"
        d="M231.9805,228.9077a29.8838,29.8838,0,0,0,3.1445,3.5586c.0184.02.0383.038.0576.0576a29.3318,29.3318,0,0,0,43.7461-3.6162l8.2959-11.0767a21.6742,21.6742,0,0,0-17.3476-34.6675h-2.9125a9.9814,9.9814,0,0,0-4.2584-.95h-14.502a9.9817,9.9817,0,0,0-4.2584.95h-2.9125a21.6747,21.6747,0,0,0-17.3486,34.6675Zm8.2131,2.6486,15.2574-7.6821,15.2033,7.7305a25.3944,25.3944,0,0,1-30.4607-.0484Zm2.6189-41.9143a5.8248,5.8248,0,0,1,5.3916-3.4287h14.502a5.954,5.954,0,0,1,4.5732,9.7652l-7.251,8.6992v.0005a5.954,5.954,0,0,1-9.1474,0l-7.25-8.7A5.8247,5.8247,0,0,1,242.8125,189.642Zm42.87,7.2866a17.3572,17.3572,0,0,1-1.6592,18.5049L275.7275,226.51a25.9676,25.9676,0,0,1-1.8781,2.232l-16.3943-8.336V210.61a9.917,9.917,0,0,0,5.6455-3.3714v.0005l7.251-8.7a9.864,9.864,0,0,0,1.3681-10.5943c-.1185-.2529-.2658-.483-.4022-.722A17.3133,17.3133,0,0,1,285.6826,196.9286Zm-60.4551,0a17.312,17.312,0,0,1,14.3645-9.7049c-.1366.239-.2839.4693-.4025.7224a9.8633,9.8633,0,0,0,1.3691,10.5938l7.25,8.7a9.9216,9.9216,0,0,0,5.6465,3.371v9.79l-16.4484,8.2826a25.9872,25.9872,0,0,1-1.8251-2.1727l-8.2959-11.0767A17.3562,17.3562,0,0,1,225.2275,196.9282Z" />
    <path fill="rgb(15, 225, 228)"
        d="M220.6729,286.9653a10.847,10.847,0,0,0,15.3291,12.7212l16.1376-8.2149a10.52,10.52,0,0,1,2.1561-.8035,11.1188,11.1188,0,0,0,5.2934,0,10.519,10.519,0,0,1,2.156.8035l16.1367,8.2149a10.9067,10.9067,0,0,0,4.9571,1.208,10.89,10.89,0,0,0,10.372-13.9292l-1.5869-5.4068a6.8307,6.8307,0,0,1-.0039-3.84l1.667-5.7378a10.848,10.848,0,0,0-15.3379-12.6939l-16.2041,8.2486a10.5076,10.5076,0,0,1-2.0947.7856,11.1,11.1,0,0,0-5.416,0,10.5107,10.5107,0,0,1-2.0948-.7856l-16.205-8.2486A10.8468,10.8468,0,0,0,220.5977,271.98l1.6669,5.7383a6.8339,6.8339,0,0,1-.0048,3.8384Zm36.27-14.98a7.501,7.501,0,1,1-7.501,7.501A7.51,7.51,0,0,1,256.9424,271.9858Zm22.8213-9.1343a6.8474,6.8474,0,0,1,9.6816,8.0132l-1.666,5.7368a10.8193,10.8193,0,0,0,.0068,6.082l1.5869,5.4082a6.8473,6.8473,0,0,1-9.6767,8.03l-15.3735-7.8263a11.474,11.474,0,0,0,.0236-17.5962Zm-53.1153.8271a6.7676,6.7676,0,0,1,7.4717-.8271l15.4182,7.848a11.4741,11.4741,0,0,0,.0237,17.5962l-15.3745,7.8263a6.8479,6.8479,0,0,1-9.6768-8.0308l1.587-5.4072a10.8265,10.8265,0,0,0,.0087-6.0815l-1.6669-5.7383A6.7678,6.7678,0,0,1,226.6484,263.6786Z" />
    <path fill="rgb(15, 225, 228)"
        d="M391.4219,309.9565l-2.8389-3.7129a206.334,206.334,0,0,0-66.1216-56.1926,94.493,94.493,0,0,0,18.5054-25.6243,95.4073,95.4073,0,0,0,3.1528-76.9631l5.482-4.0828a34.5154,34.5154,0,1,0-48.2979-48.2983l-2.0085,2.6969a95.1312,95.1312,0,0,0-87.6809,0l-2.0088-2.6972a34.5153,34.5153,0,1,0-48.2979,48.2983l5.4827,4.0833a95.1733,95.1733,0,0,0,22.07,102.962,206.3376,206.3376,0,0,0-65.4437,55.8175l-2.8389,3.7129a47.719,47.719,0,0,0,31.0994,76.2213c.3022,1.3447.6348,2.6908,1.0266,4.0375,3.9492,13.5688,11.8613,25.123,22.2783,32.5341,7.4971,5.3335,15.65,8.0777,23.6836,8.0777a34.77,34.77,0,0,0,9.7383-1.3872c22.5117-6.5513,34.1533-34.8081,25.9521-62.9893-8.1323-27.9429-32.7723-45.4681-55.1311-39.3708a77.2412,77.2412,0,0,1,1.5227-12.7644l12.6788-61.2163H317.3721l14.8838,57.4961a78.5987,78.5987,0,0,1,2.4834,17.47c-.815-.3064-1.64-.5931-2.4864-.8394-22.5068-6.55-47.498,11.0444-55.6992,39.2246-3.8686,13.2918-3.48,26.9879,1.0617,38.6753a78.7915,78.7915,0,0,1-36.5392,1.1685,2,2,0,0,0-.8067,3.9179,82.7635,82.7635,0,0,0,38.9595-1.3844c5.0547,10.4132,13.2178,17.6848,23.2769,20.612a34.7629,34.7629,0,0,0,9.7373,1.3872c8.0322,0,16.1875-2.7446,23.6836-8.0777,10.4179-7.4111,18.3291-18.9658,22.2783-32.5341.3782-1.299.7-2.5976.9944-3.8948a47.7139,47.7139,0,0,0,32.2224-76.364ZM304.5127,97.4716a30.5153,30.5153,0,1,1,42.7,42.7012l-4.6936,3.4955a95.9046,95.9046,0,0,0-39.678-43.9525ZM163.6963,140.1728a30.5158,30.5158,0,0,1,18.2207-54.99q1.1075,0,2.2207.0811a30.4943,30.4943,0,0,1,22.26,12.208l1.6711,2.2438a95.9042,95.9042,0,0,0-39.6779,43.9529Zm.4785,42.1831a91.3857,91.3857,0,0,1,89.28-91.2549v67.1353a2,2,0,0,0,4,0V91.101a91.3858,91.3858,0,0,1,89.28,91.2549,90.3685,90.3685,0,0,1-9.3565,40.3027,91.5228,91.5228,0,0,1-19.3721,26.1753c-.0966.091-.1982.175-.2954.2652h-124.45A91.0382,91.0382,0,0,1,164.1748,182.3559ZM188.333,329.851c17.8457,0,35.6484,15.2647,42.1836,37.7178,7.584,26.063-2.8369,52.0952-23.2295,58.03-9.7969,2.85-20.4433.68-29.9853-6.1089-9.6875-6.8916-17.0586-17.6851-20.7579-30.3931-7.5839-26.0625,2.837-52.0947,23.23-58.03A30.5292,30.5292,0,0,1,188.333,329.851Zm-11.501-16.3472a81.3848,81.3848,0,0,0-1.67,14.9623c-18.1109,7.4733-28.0416,29.7492-24.2947,53.5153a43.4183,43.4183,0,0,1-24.57-13.3984,103.027,103.027,0,0,1,19.0217-59.1221c10.6582-15.0625,20.5694-27.9033,29.459-38.1656a2,2,0,0,0-3.0234-2.6191c-8.9746,10.3608-18.9678,23.3052-29.7012,38.4741a106.96,106.96,0,0,0-19.61,56.5716,43.8017,43.8017,0,0,1,1.3125-51.3357l2.8388-3.7129a202.3281,202.3281,0,0,1,62.367-53.736Zm177.5332,75.5933c-3.6992,12.708-11.07,23.5015-20.7568,30.3931-9.5449,6.79-20.1924,8.958-29.9854,6.1089S286.0088,415.204,281.6,404.3535c-4.4766-11.0132-4.9043-24.0772-1.206-36.7847,6.5361-22.4551,24.3359-37.7178,42.1826-37.7178a30.5463,30.5463,0,0,1,8.56,1.2158C351.5293,337.0024,361.95,363.0351,354.3652,389.0971Zm40.5791-36.1807a44.0612,44.0612,0,0,1-5.3884,10.7931,106.9609,106.9609,0,0,0-19.61-56.5592c-10.7334-15.1684-20.7256-28.1133-29.7012-38.4746a2,2,0,0,0-3.0234,2.6192c8.89,10.2627,18.8017,23.104,29.459,38.166a103.0269,103.0269,0,0,1,19.0214,59.1051,43.4263,43.4263,0,0,1-25.685,13.5915c3.6081-22.4819-5.0317-43.6614-21.2644-52.28a82.3062,82.3062,0,0,0-2.6238-20.2858L321.8,254.2429a202.3225,202.3225,0,0,1,63.6057,54.43l2.8388,3.7129A43.66,43.66,0,0,1,394.9443,352.9164Z" />
</svg>